<svg width="64" height="64" viewBox="0 0 64 64" fill="none" xmlns="http://www.w3.org/2000/svg">
<path fill-rule="evenodd" clip-rule="evenodd" d="M20.4861 5.4844L48.4078 5.48376C48.4226 5.4844 50.101 5.39313 51.0625 5.97957C51.7089 6.37384 52.3499 6.89184 52.7732 7.75756C52.983 8.18657 53.0239 8.46109 53.1375 8.92497C53.2827 9.518 53.3244 9.861 53.3874 10.4683C53.4587 11.1562 53.4555 11.4295 53.4555 12.2378C53.4555 12.2378 56.8052 12.2587 57.8751 12.482C59.3598 12.7919 60.0971 13.2366 61.253 14.3295C62.374 15.3895 62.9016 16.4283 63.4625 18.0118C64.1809 20.0402 64.049 21.4617 63.8079 23.6496C63.6155 25.396 63.3089 26.3547 62.7169 27.9638C62.2219 29.3091 61.8948 30.0572 61.1656 31.2357C60.6462 32.0752 59.6892 33.2337 59.6724 33.254C59.672 33.2336 59.6456 31.9489 59.545 31.223C59.4288 30.3846 59.2177 29.6089 58.6574 28.6863C58.1775 27.8963 57.7434 27.2956 56.9741 26.9903C55.4044 26.3679 52.4155 26.5007 49.5087 26.7795C46.7379 27.0452 42.5147 28.2927 42.4468 28.3127C41.4684 28.7126 40.676 28.9978 39.8972 29.2975C39.4672 29.463 39.0411 29.6333 38.5901 29.8299L64 64L37.0482 57.9291L9.71954 21.2571V13.3881L38.9789 52.7843L52.5658 56.077L14.4526 4.78984H0V0H16.408L20.4861 5.4844ZM46.9238 9.38286H23.3852L36.2252 26.6494C36.5799 26.4987 36.9985 26.3232 37.507 26.1136C37.7371 26.0188 37.9862 25.9173 38.2553 25.8067C39.9731 25.1007 42.7046 24.215 42.7322 24.2061C42.749 24.2016 45.5924 23.4472 47.4413 23.1612C50.9125 22.6245 52.0487 22.4855 55.4262 22.6382C56.7619 22.6985 57.5824 22.9114 58.6974 23.6496C59.3036 24.051 60.3627 25.328 60.3627 25.328C60.3627 25.328 60.754 23.1719 60.8202 21.9796C60.8886 20.7404 60.8893 19.912 60.3627 18.8465C59.8463 17.8017 59.3764 17.4157 58.4706 16.8882C57.3367 16.2282 56.3517 16.0109 54.998 16.0108H45.1605L42.7116 12.2378H49.9495C49.9495 11.9249 49.945 11.4958 49.8688 11.1136C49.7603 10.5688 49.5734 9.97832 49.0492 9.66042C48.502 9.3286 46.9238 9.38286 46.9238 9.38286Z" fill="white"/>
<path d="M18.0412 48.0505L27.1586 50.3644L31.7729 56.5874L16.1112 53.1947L0 30.4551V23.1499L18.0412 48.0505Z" fill="white"/>
</svg>
