<svg width="16" height="16" viewBox="0 0 16 16" fill="none" xmlns="http://www.w3.org/2000/svg">
<path fill-rule="evenodd" clip-rule="evenodd" d="M5.12153 1.3711L12.102 1.37094C12.1056 1.3711 12.5253 1.34828 12.7656 1.49489C12.9272 1.59346 13.0875 1.72296 13.1933 1.93939C13.2458 2.04664 13.256 2.11527 13.2844 2.23124C13.3207 2.3795 13.3311 2.46525 13.3468 2.61708C13.3647 2.78904 13.3639 2.85737 13.3639 3.05945C13.3639 3.05945 14.2013 3.06468 14.4688 3.1205C14.8399 3.19798 15.0243 3.30914 15.3132 3.58237C15.5935 3.84738 15.7254 4.10708 15.8656 4.50295C16.0452 5.01005 16.0123 5.36543 15.952 5.91241C15.9039 6.349 15.8272 6.58868 15.6792 6.99094C15.5555 7.32728 15.4737 7.51429 15.2914 7.80893C15.1615 8.01879 14.9223 8.30843 14.9181 8.3135C14.918 8.30839 14.9114 7.98722 14.8863 7.80576C14.8572 7.59614 14.8044 7.40223 14.6643 7.17159C14.5444 6.97408 14.4358 6.8239 14.2435 6.74758C13.8511 6.59197 13.1039 6.62518 12.3772 6.69487C11.6845 6.76131 10.6287 7.07316 10.6117 7.07818C10.3671 7.17814 10.169 7.24946 9.9743 7.32437C9.8668 7.36574 9.76028 7.40831 9.64752 7.45748L16 16L9.26204 14.4823L2.42989 5.31426V3.34702L9.74472 13.1961L13.1415 14.0192L3.61315 1.19746H0V0H4.102L5.12153 1.3711ZM11.7309 2.34571H5.8463L9.0563 6.66234C9.14497 6.62467 9.24964 6.5808 9.37675 6.5284C9.43427 6.5047 9.49656 6.47932 9.56382 6.45167C9.99326 6.27516 10.6762 6.05376 10.6831 6.05152C10.6873 6.05041 11.3981 5.8618 11.8603 5.79031C12.7281 5.65613 13.0122 5.62138 13.8566 5.65954C14.1905 5.67463 14.3956 5.72785 14.6743 5.91241C14.8259 6.01275 15.0907 6.332 15.0907 6.332C15.0907 6.332 15.1885 5.79296 15.205 5.49491C15.2221 5.18509 15.2223 4.978 15.0907 4.71161C14.9616 4.45042 14.8441 4.35392 14.6177 4.22205C14.3342 4.05705 14.0879 4.00271 13.7495 4.00271H11.2901L10.6779 3.05945H12.4874C12.4874 2.98123 12.4863 2.87396 12.4672 2.7784C12.4401 2.64221 12.3934 2.49458 12.2623 2.4151C12.1255 2.33215 11.7309 2.34571 11.7309 2.34571Z" fill="white"/>
<path d="M4.51031 12.0126L6.78964 12.5911L7.94323 14.1468L4.0278 13.2987L0 7.61377V5.78748L4.51031 12.0126Z" fill="white"/>
</svg>
