<svg width="32" height="32" viewBox="0 0 32 32" fill="none" xmlns="http://www.w3.org/2000/svg">
<path fill-rule="evenodd" clip-rule="evenodd" d="M10.2431 2.7422L24.2039 2.74188C24.2113 2.7422 25.0505 2.69656 25.5313 2.98979C25.8544 3.18692 26.1749 3.44592 26.3866 3.87878C26.4915 4.09328 26.512 4.23054 26.5688 4.46248C26.6414 4.759 26.6622 4.9305 26.6937 5.23416C26.7293 5.57809 26.7277 5.71475 26.7277 6.11891C26.7277 6.11891 28.4026 6.12935 28.9375 6.24101C29.6799 6.39595 30.0485 6.61829 30.6265 7.16475C31.187 7.69477 31.4508 8.21417 31.7312 9.00589C32.0905 10.0201 32.0245 10.7309 31.904 11.8248C31.8077 12.698 31.6544 13.1774 31.3584 13.9819C31.1109 14.6546 30.9474 15.0286 30.5828 15.6179C30.3231 16.0376 29.8446 16.6169 29.8362 16.627C29.836 16.6168 29.8228 15.9744 29.7725 15.6115C29.7144 15.1923 29.6088 14.8045 29.3287 14.3432C29.0887 13.9482 28.8717 13.6478 28.487 13.4952C27.7022 13.1839 26.2078 13.2504 24.7544 13.3897C23.3689 13.5226 21.2573 14.1463 21.2234 14.1564C20.7342 14.3563 20.338 14.4989 19.9486 14.6487C19.7336 14.7315 19.5206 14.8166 19.295 14.915L32 32L18.5241 28.9646L4.85977 10.6285V6.69404L19.4894 26.3922L26.2829 28.0385L7.2263 2.39492H0V0H8.20399L10.2431 2.7422ZM23.4619 4.69143H11.6926L18.1126 13.3247C18.2899 13.2493 18.4993 13.1616 18.7535 13.0568C18.8685 13.0094 18.9931 12.9586 19.1276 12.9033C19.9865 12.5503 21.3523 12.1075 21.3661 12.103C21.3745 12.1008 22.7962 11.7236 23.7206 11.5806C25.4562 11.3123 26.0244 11.2428 27.7131 11.3191C28.381 11.3493 28.7912 11.4557 29.3487 11.8248C29.6518 12.0255 30.1813 12.664 30.1813 12.664C30.1813 12.664 30.377 11.5859 30.4101 10.9898C30.4443 10.3702 30.4446 9.956 30.1813 9.42323C29.9231 8.90083 29.6882 8.70783 29.2353 8.44411C28.6683 8.1141 28.1759 8.00543 27.499 8.00542H22.5802L21.3558 6.11891H24.9748C24.9748 5.96245 24.9725 5.74791 24.9344 5.55679C24.8801 5.28442 24.7867 4.98916 24.5246 4.83021C24.251 4.6643 23.4619 4.69143 23.4619 4.69143Z" fill="white"/>
<path d="M9.02062 24.0253L13.5793 25.1822L15.8865 28.2937L8.0556 26.5973L0 15.2275V11.575L9.02062 24.0253Z" fill="white"/>
</svg>
