<svg width="37" height="37" viewBox="0 0 37 37" fill="none" xmlns="http://www.w3.org/2000/svg">
<path fill-rule="evenodd" clip-rule="evenodd" d="M11.7466 3.14335L27.7568 3.14298C27.7653 3.14335 28.7277 3.09104 29.279 3.42715C29.6496 3.65313 30.0172 3.95001 30.2599 4.4462C30.3802 4.69208 30.4036 4.84942 30.4688 5.11529C30.552 5.45518 30.5759 5.65177 30.612 5.99985C30.6529 6.39409 30.6511 6.55074 30.6511 7.01403C30.6511 7.01403 32.5718 7.026 33.1853 7.15399C34.0366 7.3316 34.4594 7.58646 35.1221 8.21286C35.7649 8.82042 36.0674 9.4158 36.389 10.3233C36.801 11.4859 36.7254 12.3006 36.5871 13.5546C36.4768 14.5556 36.301 15.1051 35.9615 16.0273C35.6777 16.7983 35.4901 17.2271 35.0721 17.9026C34.7742 18.3837 34.2255 19.0477 34.2159 19.0593C34.2156 19.0476 34.2005 18.3113 34.1428 17.8953C34.0761 17.4147 33.9551 16.9702 33.6338 16.4414C33.3587 15.9886 33.1098 15.6443 32.6687 15.4693C31.7686 15.1126 30.0548 15.1887 28.388 15.3485C26.7993 15.5008 24.3777 16.2158 24.3388 16.2273C23.7778 16.4564 23.3234 16.6199 22.8769 16.7917C22.6303 16.8865 22.386 16.9841 22.1273 17.0968L36.6973 36.6812L21.2432 33.2017L5.57314 12.1833V7.67329L22.3503 30.253L30.141 32.1402L8.28705 2.74527H0V0H9.40825L11.7466 3.14335ZM26.9058 5.37773H13.4089L20.7713 15.2739C20.9747 15.1876 21.2148 15.087 21.5063 14.9669C21.6382 14.9125 21.7811 14.8543 21.9354 14.791C22.9203 14.3863 24.4866 13.8787 24.5024 13.8736C24.5121 13.871 26.1425 13.4386 27.2026 13.2747C29.193 12.9671 29.8445 12.8874 31.7811 12.9749C32.547 13.0095 33.0174 13.1315 33.6568 13.5546C34.0044 13.7847 34.6116 14.5166 34.6116 14.5166C34.6116 14.5166 34.836 13.2808 34.874 12.5975C34.9132 11.8872 34.9136 11.4124 34.6116 10.8017C34.3155 10.2029 34.0461 9.98168 33.5268 9.67937C32.8765 9.3011 32.3118 9.17653 31.5356 9.17652H25.8948L24.4906 7.01403H28.6408C28.6408 6.83469 28.6382 6.58876 28.5945 6.36968C28.5323 6.05747 28.4251 5.71901 28.1246 5.53681C27.8108 5.34663 26.9058 5.37773 26.9058 5.37773Z" fill="white"/>
<path d="M10.3448 27.5399L15.5726 28.866L18.2184 32.4327L9.23808 30.4882L0 17.4552V13.2682L10.3448 27.5399Z" fill="white"/>
</svg>
